<svg version="1.1" id="Layer_1" xmlns="http://www.w3.org/2000/svg" xmlns:xlink="http://www.w3.org/1999/xlink" x="0px" y="0px"
	 width="100%" viewBox="0 0 704 704" enable-background="new 0 0 704 704" xml:space="preserve">
<path fill="#000000" opacity="1.000000" stroke="none" 
	d="
M281.629883,587.496460 
	C285.309967,584.754150 288.457306,584.745728 292.539001,586.461060 
	C312.790405,594.971985 333.783844,600.466187 355.985596,599.600220 
	C373.593903,598.913452 390.505829,594.773071 406.764099,588.105469 
	C410.697388,586.492432 413.906250,586.780212 417.609192,588.649414 
	C435.318939,597.588684 453.388733,605.622070 473.132904,609.062683 
	C487.171783,611.508972 501.271790,611.088867 515.384888,609.975037 
	C520.081421,609.604431 524.771545,609.152710 529.603943,608.725708 
	C529.506104,611.894043 527.585815,613.174805 526.152405,614.691162 
	C493.532623,649.198792 453.129608,669.679138 407.342896,680.309387 
	C386.181793,685.222351 364.666138,687.302551 342.979492,686.251526 
	C282.524902,683.321838 228.369781,664.351807 183.440002,622.499084 
	C179.387146,618.723755 175.243347,614.869812 172.653809,608.395874 
	C212.115494,615.286865 247.855545,607.220093 281.629883,587.496460 
z"/>
<path fill="#000000" opacity="1.000000" stroke="none" 
	d="
M228.874924,496.648193 
	C252.542755,494.351715 274.840973,488.814117 295.371887,477.395691 
	C300.869995,474.337952 305.961609,474.070587 311.924774,476.253723 
	C325.577362,481.251923 339.667511,484.371796 354.379944,483.644958 
	C366.911285,483.025818 379.102722,480.449829 390.907990,476.449219 
	C396.110382,474.686188 400.412231,475.145447 405.176483,477.375793 
	C423.018555,485.728455 441.569641,491.967987 461.067261,495.133331 
	C467.120728,496.116089 473.209045,496.908966 479.302032,497.609833 
	C481.475677,497.859894 483.577057,498.071808 485.393402,499.173676 
	C486.082245,500.857483 485.052673,501.836578 484.197174,502.810181 
	C457.264557,533.461365 425.306610,556.816956 385.750458,568.184326 
	C349.628082,578.564941 315.464050,571.414856 282.674316,554.507874 
	C258.053162,541.812805 237.167923,524.521667 218.664612,504.133301 
	C217.569962,502.927124 216.178833,501.875488 215.932510,499.488342 
	C219.545456,496.697083 224.271622,497.722504 228.874924,496.648193 
z"/>
<path fill="#000000" opacity="1.000000" stroke="none" 
	d="
M435.933411,376.850098 
	C448.613678,380.437653 461.342865,381.412567 473.729584,383.110138 
	C474.647400,386.022003 472.783569,387.362457 471.549988,388.758209 
	C449.028809,414.239838 423.390015,435.834015 391.764648,449.049225 
	C357.935730,463.185272 324.928619,459.070282 293.558655,441.253632 
	C270.548798,428.185150 249.700211,412.235413 233.236694,391.150757 
	C232.417908,390.102142 231.577332,389.057220 230.884430,387.926331 
	C229.000473,384.851440 229.486679,383.010834 233.480621,382.627502 
	C261.017761,379.984375 286.652557,371.209717 310.977142,358.323547 
	C314.106476,356.665741 316.986633,356.386658 320.489594,357.433777 
	C339.754944,363.192444 359.190247,362.665802 378.597595,358.157349 
	C383.164337,357.096497 387.151215,357.301819 391.489166,359.507904 
	C405.590485,366.679230 420.121674,372.875244 435.933411,376.850098 
z"/>
<path fill="#000000" opacity="1.000000" stroke="none" 
	d="
M285.495483,170.570267 
	C275.618774,163.674683 266.545715,156.358795 258.207642,148.170441 
	C252.862595,142.921387 252.968933,138.403763 258.457397,133.216095 
	C271.910583,120.500198 287.268005,111.779610 306.248718,110.970459 
	C313.610626,110.656616 320.848419,111.843018 327.938354,113.713501 
	C331.544556,114.664902 333.214874,114.345711 333.831818,109.950081 
	C336.184875,93.185196 332.697388,77.536690 325.590881,62.518322 
	C322.152374,55.251629 322.736420,50.234619 328.316925,44.485870 
	C341.926697,30.465780 363.483459,32.012260 377.246002,40.389313 
	C382.415192,43.535713 383.654907,48.811752 381.201050,54.912163 
	C375.738403,68.492638 373.475891,82.723083 372.409454,97.191055 
	C372.019958,102.475273 372.266083,107.770844 374.148071,113.062347 
	C380.727081,112.561180 386.948853,110.748512 393.460541,110.519165 
	C409.816864,109.943108 423.845642,115.204674 436.041107,125.836739 
	C439.429901,128.791138 442.800537,131.776825 446.023773,134.908493 
	C452.079071,140.791733 452.013275,143.656906 446.024780,149.436737 
	C440.853027,154.428284 435.303680,158.951202 429.213074,162.763519 
	C412.125214,173.459305 394.672882,183.448883 376.481140,192.237335 
	C359.522308,200.430176 343.132172,200.560913 326.184296,192.576355 
	C312.306244,186.038055 298.482849,179.479996 285.495483,170.570267 
z"/>
<path fill="#000000" opacity="1.000000" stroke="none" 
	d="
M455.070923,469.277130 
	C445.293701,466.578156 435.719818,464.510468 427.193726,459.599518 
	C427.663757,456.964081 429.624329,456.425995 431.061066,455.478851 
	C457.564941,438.006256 480.194458,416.205353 500.935913,392.394928 
	C507.836639,384.473114 515.152283,378.438812 525.612610,375.057983 
	C539.783875,370.477753 553.647034,364.490051 565.967041,355.637482 
	C570.395081,352.455750 573.572144,352.975891 577.417175,356.961212 
	C580.109924,359.752228 582.070679,363.065125 583.584412,366.590515 
	C589.937073,381.385742 593.194458,396.909485 594.341003,412.927856 
	C595.351746,427.049438 588.919312,437.490143 578.391785,446.088013 
	C560.714722,460.524841 540.058289,467.693329 517.887573,471.338013 
	C496.946167,474.780579 476.165344,473.832520 455.070923,469.277130 
z"/>
<path fill="#000000" opacity="1.000000" stroke="none" 
	d="
M331.392059,333.967041 
	C311.132172,329.363373 294.644562,318.576080 279.069824,306.087280 
	C271.515656,300.029907 264.342224,293.576569 258.436768,285.840668 
	C256.817291,283.719269 255.102448,281.594177 255.966782,278.101257 
	C264.813904,275.790314 274.086365,274.005920 282.975403,270.793671 
	C304.410095,263.047760 324.386047,252.477554 343.071442,239.543381 
	C348.484863,235.796188 352.457977,235.544510 358.112274,239.378891 
	C381.238525,255.061752 405.897644,267.741150 433.097870,274.925446 
	C436.948090,275.942383 440.844971,276.796356 444.744537,277.609344 
	C449.884827,278.681030 450.547577,280.005219 447.167633,284.057465 
	C436.742523,296.556183 424.298859,306.794708 410.947479,316.014191 
	C398.085907,324.895447 384.420441,331.813599 368.907501,334.822510 
	C356.441986,337.240326 344.119446,336.545380 331.392059,333.967041 
z"/>
<path fill="#000000" opacity="1.000000" stroke="none" 
	d="
M171.382233,373.510620 
	C172.368958,373.877106 172.966629,374.241241 173.607727,374.350433 
	C186.057159,376.471558 194.228439,384.503113 202.125320,393.673187 
	C222.181534,416.962982 244.411438,437.964691 270.207336,454.943542 
	C271.564667,455.836945 273.114258,456.627991 273.781708,458.421753 
	C273.090973,460.938110 270.647430,461.122223 268.760345,461.847656 
	C251.710205,468.402130 234.059357,471.749969 215.778397,472.514130 
	C191.062851,473.547241 167.500031,469.252533 145.134796,458.707855 
	C136.818924,454.787140 129.133652,449.733063 122.342369,443.541962 
	C110.738968,432.964111 105.448601,420.204285 108.417686,404.162628 
	C110.788216,391.354950 113.895576,378.865082 119.232948,366.975159 
	C120.252762,364.703400 121.346741,362.442657 122.642761,360.321136 
	C127.235405,352.803131 130.210403,351.934387 137.580994,356.730530 
	C148.105087,363.578644 159.263428,369.052582 171.382233,373.510620 
z"/>
<path fill="#000000" opacity="1.000000" stroke="none" 
	d="
M166.404282,581.811157 
	C134.322784,570.373779 116.405945,547.201538 108.717804,515.180603 
	C105.880066,503.361511 103.691170,491.462158 103.695786,479.251068 
	C103.696106,478.417969 103.695305,477.583282 103.742912,476.752045 
	C104.278107,467.408722 107.430176,465.336426 115.260963,470.546906 
	C132.457840,481.989380 151.388031,488.891724 171.257278,493.682892 
	C175.091843,494.607513 178.117157,496.545563 180.781830,499.592499 
	C199.009094,520.434631 217.842377,540.676819 240.283157,557.169922 
	C245.995392,561.368164 251.781403,565.466125 258.624359,570.395996 
	C228.785690,587.395630 198.794022,592.447510 166.404282,581.811157 
z"/>
<path fill="#000000" opacity="1.000000" stroke="none" 
	d="
M464.511078,555.487915 
	C485.414856,539.007141 503.398895,520.021606 520.943604,500.607056 
	C524.317932,496.873169 527.962158,494.361267 532.951355,493.240295 
	C553.411743,488.643219 572.723206,481.213135 590.236877,469.423523 
	C594.278076,466.703094 597.118652,467.827454 597.172302,472.302521 
	C597.566772,505.211884 592.253479,536.611633 568.269958,561.349182 
	C552.392090,577.726318 532.116577,585.640747 509.337952,587.447510 
	C488.235229,589.121277 468.861938,583.646179 450.312775,574.251221 
	C448.418304,573.291687 446.376099,572.414978 444.690765,569.953857 
	C451.213409,565.202393 457.725250,560.458801 464.511078,555.487915 
z"/>
<path fill="#000000" opacity="1.000000" stroke="none" 
	d="
M232.260895,294.734589 
	C250.084122,310.426270 267.152679,326.463165 287.367645,339.898621 
	C279.324951,345.991913 271.049438,348.830994 262.573883,351.042236 
	C247.541702,354.964111 232.218643,357.152740 216.678131,356.270264 
	C189.462921,354.724854 164.511734,346.516296 142.762787,329.660339 
	C138.702942,326.513855 136.981461,322.027283 136.682541,317.011780 
	C136.253006,309.804779 137.203979,302.811218 139.544693,295.921600 
	C144.822037,280.388397 151.635330,265.640503 161.051697,252.162766 
	C166.349564,244.579895 167.418243,244.429077 174.800781,249.543777 
	C182.875092,255.137772 190.886368,260.831390 199.105759,266.205322 
	C211.330566,274.198029 221.300491,284.758453 232.260895,294.734589 
z"/>
<path fill="#000000" opacity="1.000000" stroke="none" 
	d="
M526.111755,252.018005 
	C535.913208,246.052155 537.158447,246.078293 542.945496,255.462006 
	C553.586121,272.715637 561.042419,291.427643 565.902039,311.037170 
	C567.987183,319.451080 563.273254,326.294678 556.931396,331.459198 
	C540.931946,344.488373 522.266479,351.746033 502.136108,355.184753 
	C473.535614,360.070343 445.884338,355.885773 419.024139,345.442566 
	C417.941040,345.021454 416.867004,344.559906 415.840424,344.019073 
	C415.437897,343.807037 415.177704,343.324768 414.898651,343.016357 
	C414.777069,341.219788 416.209930,340.712036 417.223419,339.971771 
	C444.584900,319.986115 469.558594,297.179596 494.375916,274.225098 
	C503.911957,265.404877 515.103821,259.227783 526.111755,252.018005 
z"/>
<path fill="#000000" opacity="1.000000" stroke="none" 
	d="
M277.886230,192.072479 
	C291.828125,201.542389 305.830841,210.233734 320.133148,218.447098 
	C325.096710,221.297531 325.127289,222.344101 320.416107,225.578522 
	C302.090424,238.159958 282.434814,247.775055 260.193848,250.794189 
	C234.875610,254.231079 211.275665,250.037827 192.017120,231.881271 
	C182.264496,222.686722 181.970123,216.150848 187.168182,205.595993 
	C195.626770,188.420517 207.972595,174.803177 223.263184,163.591705 
	C225.977615,161.601425 228.585068,161.448990 231.658173,162.737640 
	C239.717789,166.117325 246.774139,171.159195 253.992661,175.925461 
	C261.913788,181.155655 269.728058,186.547714 277.886230,192.072479 
z"/>
<path fill="#000000" opacity="1.000000" stroke="none" 
	d="
M503.448914,186.602386 
	C508.317078,192.782166 512.360596,199.063141 515.696533,205.802429 
	C520.707947,215.926559 519.339478,224.014450 510.907990,231.689346 
	C502.152313,239.659409 491.931335,245.110840 480.550598,248.328781 
	C457.968018,254.714066 436.099854,251.629211 414.811951,242.867233 
	C403.405731,238.172516 392.577057,232.302231 382.600830,224.965576 
	C381.268158,223.985504 379.768555,223.178604 379.140259,221.480331 
	C379.246002,219.636688 380.770660,219.064178 382.064301,218.430496 
	C405.960632,206.725296 426.875092,190.369537 448.829529,175.639404 
	C454.915466,171.556091 461.119904,167.710754 467.632965,164.326370 
	C471.487549,162.323425 474.769562,162.740494 478.383820,164.926910 
	C487.885254,170.674713 496.159363,177.783615 503.448914,186.602386 
z"/>
</svg>