<svg xmlns="http://www.w3.org/2000/svg" width="1200" height="360" viewBox="0 0 1200 360">
  <rect width="100%" height="100%" fill="white"/>

  <!-- ===== A ===== -->
  <path fill="#000" d="
    M 95 300
    L 165 50
    Q 170 35 190 35
    Q 210 35 215 50
    L 285 300
    Q 290 320 270 320
    L 240 320
    Q 225 320 221 305
    L 205 245
    L 175 245
    L 159 305
    Q 155 320 140 320
    L 110 320
    Q 90 320 95 300
    Z

    M 183 205
    L 197 205
    L 190 175
    Z
  "/>

  <!-- ===== B ===== -->
  <path fill="#000" d="
    M 395 315
    Q 365 315 365 285
    L 365 75
    Q 365 45 395 45
    L 475 45
    Q 585 45 585 125
    Q 585 170 545 190
    Q 605 208 605 265
    Q 605 345 495 345
    L 395 345
    Q 365 345 365 315
    Z

    M 425 105
    L 475 105
    Q 520 105 520 135
    Q 520 165 475 165
    L 425 165
    Z

    M 425 220
    L 490 220
    Q 535 220 535 260
    Q 535 300 490 300
    L 425 300
    Z
  "/>

  <!-- ===== C ===== -->
  <path fill="#000" d="
    M 865 60
    Q 980 60 1010 125
    Q 1016 140 1001 148
    L 970 165
    Q 955 173 947 158
    Q 928 120 870 120
    Q 790 120 790 185
    Q 790 255 872 255
    Q 930 255 948 218
    Q 956 202 971 210
    L 1002 226
    Q 1017 234 1010 250
    Q 980 315 865 315
    Q 720 315 720 185
    Q 720 60 865 60
    Z
  "/>

</svg>
