<?xml version="1.0" encoding="UTF-8"?>
<svg width="48" height="48" viewBox="0 0 24 24" fill="none" xmlns="http://www.w3.org/2000/svg">
  <!-- People silhouette in gold -->
  <g fill="#ffd700" stroke="#ffd700" stroke-width="1">
    <!-- Left person -->
    <circle cx="7" cy="8" r="2.5"/>
    <path d="M7 11c-2 0-3.5 1.5-3.5 3.5v4c0 0.5 0.5 1 1 1h5c0.5 0 1-0.5 1-1v-4c0-2-1.5-3.5-3.5-3.5z"/>
    
    <!-- Center person (slightly larger) -->
    <circle cx="12" cy="7" r="3"/>
    <path d="M12 11c-2.5 0-4.5 2-4.5 4.5v5c0 0.5 0.5 1 1 1h7c0.5 0 1-0.5 1-1v-5c0-2.5-2-4.5-4.5-4.5z"/>
    
    <!-- Right person -->
    <circle cx="17" cy="8" r="2.5"/>
    <path d="M17 11c-2 0-3.5 1.5-3.5 3.5v4c0 0.5 0.5 1 1 1h5c0.5 0 1-0.5 1-1v-4c0-2-1.5-3.5-3.5-3.5z"/>
  </g>
</svg>
